/* XPM */
static char *_41af609a9ae4a4ff0b901e6418ab4b3a0JOkTbXkZtQGI0D[] = {
/* columns rows colors chars-per-pixel */
"16 16 4 1 ",
"  c #F0B050",
". c #FF408F",
"X c white",
"o c none",
/* pixels */
"oooooooooooooooo",
"oooooooooooooooo",
"oooooooooooo  oo",
"oooooooooo   ooo",
"oooooooo  o oooo",
"ooooooo ooo oooo",
"ooo... ooo ooooo",
"oo... ..oo ooooo",
"oo.....o. ..oooo",
"oo.X..o.. ...ooo",
"oo..X.o......ooo",
"ooo...o.X....ooo",
"ooooooo..X...ooo",
"oooooooo....oooo",
"oooooooooooooooo",
"oooooooooooooooo"
};
