/* XPM */
static char *af9561d1fadf4f6ce469932b45924777nnOriR9nNiP3Fcy2[] = {
/* columns rows colors chars-per-pixel */
"16 16 3 1 ",
"  c red",
". c white",
"X c None",
/* pixels */
"XXXX XXXXXX XXXX",
"XXXX XXXXXX XXXX",
"    .      .    ",
" .. . .... . .. ",
" . ... .. ... . ",
" . ... .. ... . ",
" .............. ",
" ... ...... ... ",
" ... ...... ... ",
" .. . .... . .. ",
" .. . .... . .. ",
" . ... .. ... . ",
" . ... .. ... . ",
" .............. ",
" .............. ",
"                "
};
