/* XPM */
static char *_a00fa7ac0d34482ca9a374a4312f801m3DFqAF2y7IB4aGX[] = {
/* columns rows colors chars-per-pixel */
"16 16 6 1 ",
"  c #003FFF",
". c #000C33",
"X c #002FBF",
"o c #3F6FFF",
"O c #000619",
"+ c none",
/* pixels */
"++++++++++++++++",
"++++ ++++++ ++++",
"+++ . ++++ . +++",
"++ ... ++ ... ++",
"+X ... XX ... X+",
"+X .o. OO .o. X+",
"+X ... XX ... X+",
"++ ... ++ ... ++",
"++ ... ++ ... ++",
"+X ... XX ... X+",
"+X .o. OO .o. X+",
"+X ... XX ... X+",
"++ ... ++ ... ++",
"++ ... ++ ... ++",
"++     ++     ++",
"++++++++++++++++"
};
